<svg fill="none" xmlns="http://www.w3.org/2000/svg" viewBox="0 0 119 53"><path d="M.913 49V36.914h4.341c1.555 0 2.737.285 3.545.855.813.57 1.22 1.397 1.22 2.482 0 .625-.144 1.16-.432 1.602-.287.443-.71.77-1.27.98.631.166 1.115.475 1.453.93.338.453.506 1.006.506 1.66 0 1.184-.376 2.075-1.129 2.672-.747.592-1.856.894-3.328.905H.913Zm2.914-5.138v2.897h1.909c.526 0 .93-.12 1.212-.357.282-.244.423-.584.423-1.021 0-1.007-.5-1.514-1.502-1.52H3.827Zm0-1.91h1.519c.636-.005 1.09-.121 1.361-.348.271-.227.407-.562.407-1.004 0-.51-.147-.875-.44-1.096-.293-.227-.767-.34-1.42-.34H3.827v2.789ZM14.97 46.76h5.072V49h-7.985V36.914h2.913v9.845Zm13.501-.017H24.48L23.78 49H20.67L25.1 36.914h2.74L32.305 49h-3.13l-.705-2.258Zm-3.295-2.25h2.598l-1.303-4.191-1.295 4.192Zm17.784.416c-.038.84-.265 1.585-.68 2.233-.416.642-1 1.14-1.752 1.494-.747.354-1.602.531-2.565.531-1.588 0-2.839-.517-3.752-1.552-.913-1.035-1.37-2.496-1.37-4.383v-.598c0-1.184.205-2.219.615-3.104.415-.891 1.01-1.577 1.784-2.059.775-.487 1.672-.73 2.69-.73 1.466 0 2.645.387 3.536 1.162.891.77 1.397 1.832 1.52 3.187H40.08c-.022-.736-.208-1.264-.556-1.585-.349-.321-.88-.481-1.594-.481-.725 0-1.256.27-1.594.813-.337.542-.514 1.408-.531 2.598v.855c0 1.29.16 2.21.481 2.764.327.554.886.83 1.677.83.67 0 1.182-.157 1.536-.473.354-.315.542-.816.564-1.502h2.897Zm5.657-.407-1.195 1.312V49h-2.914V36.914h2.914v5.33l1.012-1.536 2.607-3.794h3.602L50.56 42.26 54.643 49H51.19l-2.573-4.499Zm18.95-.316H62.87V49h-2.913V36.914h8.084v2.25h-5.17v2.78h4.697v2.241Zm6.346.548h-1.577V49h-2.914V36.914h4.757c1.433 0 2.554.318 3.362.955.808.636 1.212 1.535 1.212 2.697 0 .842-.172 1.539-.515 2.092-.338.554-.869 1.002-1.594 1.345l2.523 4.873V49h-3.12l-2.134-4.267Zm-1.577-2.25h1.843c.553 0 .968-.143 1.245-.43.282-.294.423-.7.423-1.221 0-.52-.14-.927-.423-1.22-.282-.299-.697-.448-1.245-.448h-1.843v3.32ZM83.786 49h-2.904V36.914h2.905V49Zm2.196 0V36.914h3.893c1.068 0 2.028.244 2.88.73a5.044 5.044 0 0 1 1.993 2.05c.481.88.725 1.868.73 2.964v.556c0 1.107-.235 2.1-.705 2.98a5.126 5.126 0 0 1-1.976 2.059c-.847.492-1.793.742-2.839.747h-3.976Zm2.914-9.836v7.595h1.012c.836 0 1.478-.296 1.926-.888.448-.598.673-1.483.673-2.657v-.523c0-1.167-.225-2.047-.673-2.64-.448-.591-1.101-.887-1.959-.887h-.98Zm14.929 7.578h-3.993L99.135 49h-3.113l4.432-12.086h2.74L107.659 49h-3.129l-.705-2.258Zm-3.296-2.25h2.598l-1.303-4.191-1.295 4.192Zm11.368-2.332 2.224-5.246h3.146l-3.893 7.745V49h-2.955v-4.341l-3.884-7.745h3.129l2.233 5.246Z" fill="url(#a)"/><path d="M1 28.1v-5.702c3.52 1.63 6.5 2.444 8.667 2.444 2.844 0 4.198-1.086 4.198-3.123 0-1.085-.677-1.9-1.896-2.85-.542-.407-1.76-1.086-3.656-1.9-1.896-.815-3.25-1.63-4.063-2.444-1.896-1.63-2.98-3.801-2.98-6.244 0-2.444.813-4.48 2.574-5.973C5.604.814 8.042 0 11.156 0c2.573 0 5.417.679 8.667 2.036l-2.031 4.751c-2.844-1.086-4.875-1.764-6.365-1.764-1.49.135-2.573.407-3.114.95-.677.543-.948 1.086-.948 1.765 0 .678.135 1.221.406 1.629.27.407.677.814 1.219 1.221.541.408 2.031 1.086 4.333 2.308 2.438 1.086 4.063 2.308 5.146 3.665 1.083 1.358 1.49 2.85 1.49 4.751 0 2.58-.948 4.751-2.844 6.244-1.896 1.494-4.469 2.308-7.719 2.308S3.438 29.321 1 28.1ZM24.698 29.457V7.195h4.604l.813 2.85h.27c1.355-2.172 3.657-3.258 6.772-3.258 2.573 0 4.469.68 5.823 2.037 1.354 1.357 2.167 3.529 2.167 6.108v14.525h-6.094V16.561c0-1.629-.271-2.85-.813-3.665-.541-.815-1.49-1.222-2.708-1.222-1.625 0-2.98.543-3.656 1.63-.678 1.085-1.084 2.986-1.084 5.565V29.32l-6.094.136ZM50.022 18.326c0-3.665.947-6.516 2.843-8.417 1.896-2.036 4.47-3.122 7.99-3.122 2.167 0 4.063.408 5.552 1.358 1.625.95 2.844 2.308 3.792 3.936a14.473 14.473 0 0 1 1.354 6.109c0 3.665-.948 6.516-2.844 8.552-1.895 2.036-4.604 3.122-7.99 3.122-2.166 0-4.062-.407-5.687-1.357s-2.844-2.308-3.792-4.073c-.812-1.764-1.218-3.8-1.218-6.108Zm7.177-5.023c-.677 1.086-1.084 2.715-1.084 4.887 0 2.172.407 3.937 1.084 5.023.677 1.086 1.896 1.629 3.52 1.629 1.626 0 2.844-.543 3.521-1.63.678-1.085 1.084-2.714 1.084-5.022 0-2.172-.406-3.8-1.084-4.887-.677-1.086-1.895-1.629-3.52-1.629s-2.709.543-3.521 1.63ZM72.501 7.195h6.365l4.333 12.624c.542 1.629.813 3.122.948 4.615h.136c0-1.221.406-2.85.948-4.615l4.198-12.624h6.364l-8.667 22.262h-6.229L72.501 7.195Z" fill="#8178D9"/><g opacity=".5" fill="#8178D9"><path d="m96.064 29.457 3.25-14.796h3.927l-3.114 14.796h-4.063Zm3.792-18.326c0-.814.271-1.357.677-1.764.406-.408.948-.543 1.76-.543 1.084 0 1.761.543 1.761 1.629 0 .678-.136 1.221-.542 1.764-.406.408-.813.68-1.625.68-1.354-.137-2.031-.68-2.031-1.766ZM106.356 28.235c-1.084-1.085-1.49-2.443-1.49-4.208 0-1.764.271-3.393.948-4.887.677-1.493 1.49-2.579 2.709-3.393 1.218-.815 2.572-1.222 4.333-1.222 1.625 0 2.979.543 3.927 1.629.948 1.086 1.49 2.444 1.49 4.344 0 1.9-.271 3.53-.948 4.887-.677 1.357-1.49 2.579-2.709 3.393-1.218.815-2.573 1.222-4.198 1.222-1.625 0-2.979-.814-4.062-1.765Zm2.437-4.208c0 1.63.677 2.444 2.032 2.444.677 0 1.218-.272 1.76-.815.542-.543.948-1.357 1.219-2.307.271-.95.406-2.037.406-3.123 0-1.764-.677-2.579-1.896-2.579-.677 0-1.219.272-1.76.815-.542.543-.948 1.357-1.219 2.307-.271 1.086-.542 2.172-.542 3.258Z"/></g><defs><linearGradient id="a" x1="61" y1="43" x2="61" y2="49" gradientUnits="userSpaceOnUse"><stop stop-color="#DC324A"/><stop offset="1" stop-color="#0F0F0F"/></linearGradient></defs></svg>